<mxfile host="app.diagrams.net" modified="2024-06-08T02:39:07.282Z" agent="Mozilla/5.0 (Windows NT 10.0; Win64; x64) AppleWebKit/537.36 (KHTML, like Gecko) Chrome/125.0.0.0 Safari/537.36" etag="xyVBHx-3U7QCJBfrKBKF" version="24.5.2" type="github">
  <diagram name="Page-1" id="nT-CIsypetLS6fHJ7VBh">
    <mxGraphModel dx="933" dy="456" grid="1" gridSize="10" guides="1" tooltips="1" connect="1" arrows="1" fold="1" page="1" pageScale="1" pageWidth="827" pageHeight="1169" math="0" shadow="0">
      <root>
        <mxCell id="0" />
        <mxCell id="1" parent="0" />
        <mxCell id="ygukodNI0j2g59m-qH0x-1" value="&quot;Pemain&quot; melakukan salah satu eksperimen dari 3 pilihan" style="rounded=0;whiteSpace=wrap;html=1;" vertex="1" parent="1">
          <mxGeometry x="320" y="40" width="120" height="60" as="geometry" />
        </mxCell>
      </root>
    </mxGraphModel>
  </diagram>
</mxfile>
